<svg width="210" height="36" viewBox="0 0 210 36" fill="none" xmlns="http://www.w3.org/2000/svg">
<g clip-path="url(#clip0_39_1953)">
<path d="M26.9999 0C36.9413 0 44.9999 8.0586 44.9999 18V30.6C44.9999 32.0322 44.431 33.4057 43.4183 34.4184C42.4056 35.4311 41.0321 36 39.5999 36H27.8999V28.1034C27.8999 26.3016 28.0097 24.435 28.9547 22.9014C29.6313 21.8023 30.5363 20.8617 31.6084 20.1432C32.6805 19.4246 33.8946 18.9451 35.1683 18.7371L35.513 18.6813C35.6551 18.6327 35.7785 18.5409 35.8658 18.4188C35.9531 18.2966 36.0001 18.1502 36.0001 18C36.0001 17.8498 35.9531 17.7034 35.8658 17.5812C35.7785 17.4591 35.6551 17.3673 35.513 17.3187L35.1683 17.2629C33.3072 16.9589 31.5887 16.078 30.2553 14.7446C28.9219 13.4112 28.041 11.6926 27.737 9.8316L27.6812 9.4869C27.6326 9.34479 27.5408 9.22143 27.4186 9.13408C27.2965 9.04673 27.1501 8.99977 26.9999 8.99977C26.8497 8.99977 26.7033 9.04673 26.5811 9.13408C26.459 9.22143 26.3672 9.34479 26.3186 9.4869L26.2628 9.8316C26.0548 11.1053 25.5753 12.3195 24.8568 13.3916C24.1383 14.4637 23.1976 15.3687 22.0985 16.0452C20.5649 16.9902 18.6983 17.1 16.8965 17.1H9.02148C9.49218 7.5771 17.3609 0 26.9999 0Z" fill="black"/>
<path d="M9 18.9H16.8966C18.6984 18.9 20.565 19.0098 22.0986 19.9548C23.2974 20.6935 24.3065 21.7026 25.0452 22.9014C25.9902 24.435 26.1 26.3016 26.1 28.1034V36H14.4C12.9678 36 11.5943 35.4311 10.5816 34.4184C9.56893 33.4057 9 32.0322 9 30.6V18.9ZM45 1.8C45 2.27739 44.8104 2.73523 44.4728 3.07279C44.1352 3.41036 43.6774 3.6 43.2 3.6C42.7226 3.6 42.2648 3.41036 41.9272 3.07279C41.5896 2.73523 41.4 2.27739 41.4 1.8C41.4 1.32261 41.5896 0.864773 41.9272 0.527208C42.2648 0.189642 42.7226 0 43.2 0C43.6774 0 44.1352 0.189642 44.4728 0.527208C44.8104 0.864773 45 1.32261 45 1.8Z" fill="#2B82FE"/>
</g>
<path d="M63.4673 25.14C61.8273 25.14 60.4807 24.7533 59.4273 23.98C58.374 23.1933 57.8073 22.0733 57.7273 20.62H61.9073C61.9473 21.1133 62.094 21.4733 62.3473 21.7C62.6007 21.9267 62.9273 22.04 63.3273 22.04C63.6873 22.04 63.9807 21.9533 64.2073 21.78C64.4473 21.5933 64.5673 21.34 64.5673 21.02C64.5673 20.6067 64.374 20.2867 63.9873 20.06C63.6007 19.8333 62.974 19.58 62.1073 19.3C61.1873 18.9933 60.4407 18.7 59.8673 18.42C59.3073 18.1267 58.814 17.7067 58.3873 17.16C57.974 16.6 57.7673 15.8733 57.7673 14.98C57.7673 14.0733 57.994 13.3 58.4473 12.66C58.9007 12.0067 59.5273 11.5133 60.3273 11.18C61.1273 10.8467 62.034 10.68 63.0473 10.68C64.6873 10.68 65.994 11.0667 66.9673 11.84C67.954 12.6 68.4807 13.6733 68.5473 15.06H64.2873C64.274 14.6333 64.1407 14.3133 63.8873 14.1C63.6473 13.8867 63.334 13.78 62.9473 13.78C62.654 13.78 62.414 13.8667 62.2273 14.04C62.0407 14.2133 61.9473 14.46 61.9473 14.78C61.9473 15.0467 62.0473 15.28 62.2473 15.48C62.4607 15.6667 62.7207 15.8333 63.0273 15.98C63.334 16.1133 63.7873 16.2867 64.3873 16.5C65.2807 16.8067 66.014 17.1133 66.5873 17.42C67.174 17.7133 67.674 18.1333 68.0873 18.68C68.514 19.2133 68.7273 19.8933 68.7273 20.72C68.7273 21.56 68.514 22.3133 68.0873 22.98C67.674 23.6467 67.0673 24.1733 66.2673 24.56C65.4807 24.9467 64.5473 25.14 63.4673 25.14ZM81.2697 19.26C81.2697 19.5667 81.2497 19.8733 81.2097 20.18H73.7897C73.8297 20.7933 73.9964 21.2533 74.2897 21.56C74.5964 21.8533 74.983 22 75.4497 22C76.103 22 76.5697 21.7067 76.8497 21.12H81.0297C80.8564 21.8933 80.5164 22.5867 80.0097 23.2C79.5164 23.8 78.8897 24.2733 78.1297 24.62C77.3697 24.9667 76.5297 25.14 75.6097 25.14C74.503 25.14 73.5164 24.9067 72.6497 24.44C71.7964 23.9733 71.123 23.3067 70.6297 22.44C70.1497 21.5733 69.9097 20.5533 69.9097 19.38C69.9097 18.2067 70.1497 17.1933 70.6297 16.34C71.1097 15.4733 71.7764 14.8067 72.6297 14.34C73.4964 13.8733 74.4897 13.64 75.6097 13.64C76.7164 13.64 77.6964 13.8667 78.5497 14.32C79.403 14.7733 80.0697 15.4267 80.5497 16.28C81.0297 17.12 81.2697 18.1133 81.2697 19.26ZM77.2697 18.28C77.2697 17.8 77.1097 17.4267 76.7897 17.16C76.4697 16.88 76.0697 16.74 75.5897 16.74C75.1097 16.74 74.7164 16.8733 74.4097 17.14C74.103 17.3933 73.903 17.7733 73.8097 18.28H77.2697ZM89.8939 25L86.7939 20.4V25H82.8739V10.2H86.7939V18.18L89.8939 13.78H94.5939L90.1739 19.42L94.6739 25H89.8939ZM95.1831 19.38C95.1831 18.22 95.3898 17.2067 95.8031 16.34C96.2298 15.4733 96.8031 14.8067 97.5231 14.34C98.2565 13.8733 99.0698 13.64 99.9631 13.64C100.736 13.64 101.403 13.7933 101.963 14.1C102.523 14.4067 102.956 14.82 103.263 15.34V13.78H107.183V25H103.263V23.44C102.956 23.96 102.516 24.3733 101.943 24.68C101.383 24.9867 100.723 25.14 99.9631 25.14C99.0698 25.14 98.2565 24.9067 97.5231 24.44C96.8031 23.9733 96.2298 23.3067 95.8031 22.44C95.3898 21.56 95.1831 20.54 95.1831 19.38ZM103.263 19.38C103.263 18.66 103.063 18.0933 102.663 17.68C102.276 17.2667 101.796 17.06 101.223 17.06C100.636 17.06 100.15 17.2667 99.7631 17.68C99.3765 18.08 99.1831 18.6467 99.1831 19.38C99.1831 20.1 99.3765 20.6733 99.7631 21.1C100.15 21.5133 100.636 21.72 101.223 21.72C101.796 21.72 102.276 21.5133 102.663 21.1C103.063 20.6867 103.263 20.1133 103.263 19.38ZM125.997 13.78L123.137 25H118.737L117.177 18.2L115.557 25H111.177L108.337 13.78H112.237L113.497 21.22L115.157 13.78H119.357L121.077 21.24L122.317 13.78H125.997ZM126.472 19.38C126.472 18.22 126.679 17.2067 127.092 16.34C127.519 15.4733 128.092 14.8067 128.812 14.34C129.546 13.8733 130.359 13.64 131.252 13.64C132.026 13.64 132.692 13.7933 133.252 14.1C133.812 14.4067 134.246 14.82 134.552 15.34V13.78H138.472V25H134.552V23.44C134.246 23.96 133.806 24.3733 133.232 24.68C132.672 24.9867 132.012 25.14 131.252 25.14C130.359 25.14 129.546 24.9067 128.812 24.44C128.092 23.9733 127.519 23.3067 127.092 22.44C126.679 21.56 126.472 20.54 126.472 19.38ZM134.552 19.38C134.552 18.66 134.352 18.0933 133.952 17.68C133.566 17.2667 133.086 17.06 132.512 17.06C131.926 17.06 131.439 17.2667 131.052 17.68C130.666 18.08 130.472 18.6467 130.472 19.38C130.472 20.1 130.666 20.6733 131.052 21.1C131.439 21.5133 131.926 21.72 132.512 21.72C133.086 21.72 133.566 21.5133 133.952 21.1C134.352 20.6867 134.552 20.1133 134.552 19.38ZM148.046 13.68C149.339 13.68 150.366 14.1133 151.126 14.98C151.886 15.8333 152.266 16.9933 152.266 18.46V25H148.346V18.98C148.346 18.34 148.179 17.84 147.846 17.48C147.513 17.1067 147.066 16.92 146.506 16.92C145.919 16.92 145.459 17.1067 145.126 17.48C144.793 17.84 144.626 18.34 144.626 18.98V25H140.706V13.78H144.626V15.38C144.973 14.8733 145.439 14.4667 146.026 14.16C146.613 13.84 147.286 13.68 148.046 13.68ZM161.557 25L158.757 19.8H158.337V25H154.417V10.9H160.597C161.73 10.9 162.69 11.1 163.477 11.5C164.264 11.8867 164.857 12.4267 165.257 13.12C165.657 13.8 165.857 14.5667 165.857 15.42C165.857 16.38 165.59 17.2267 165.057 17.96C164.537 18.68 163.77 19.1933 162.757 19.5L165.937 25H161.557ZM158.337 17.12H160.277C160.81 17.12 161.21 16.9933 161.477 16.74C161.744 16.4867 161.877 16.12 161.877 15.64C161.877 15.1867 161.737 14.8333 161.457 14.58C161.19 14.3133 160.797 14.18 160.277 14.18H158.337V17.12ZM178.36 19.26C178.36 19.5667 178.34 19.8733 178.3 20.18H170.88C170.92 20.7933 171.086 21.2533 171.38 21.56C171.686 21.8533 172.073 22 172.54 22C173.193 22 173.66 21.7067 173.94 21.12H178.12C177.946 21.8933 177.606 22.5867 177.1 23.2C176.606 23.8 175.98 24.2733 175.22 24.62C174.46 24.9667 173.62 25.14 172.7 25.14C171.593 25.14 170.606 24.9067 169.74 24.44C168.886 23.9733 168.213 23.3067 167.72 22.44C167.24 21.5733 167 20.5533 167 19.38C167 18.2067 167.24 17.1933 167.72 16.34C168.2 15.4733 168.866 14.8067 169.72 14.34C170.586 13.8733 171.58 13.64 172.7 13.64C173.806 13.64 174.786 13.8667 175.64 14.32C176.493 14.7733 177.16 15.4267 177.64 16.28C178.12 17.12 178.36 18.1133 178.36 19.26ZM174.36 18.28C174.36 17.8 174.2 17.4267 173.88 17.16C173.56 16.88 173.16 16.74 172.68 16.74C172.2 16.74 171.806 16.8733 171.5 17.14C171.193 17.3933 170.993 17.7733 170.9 18.28H174.36ZM187.304 13.68C188.597 13.68 189.624 14.1133 190.384 14.98C191.144 15.8333 191.524 16.9933 191.524 18.46V25H187.604V18.98C187.604 18.34 187.437 17.84 187.104 17.48C186.77 17.1067 186.324 16.92 185.764 16.92C185.177 16.92 184.717 17.1067 184.384 17.48C184.05 17.84 183.884 18.34 183.884 18.98V25H179.964V13.78H183.884V15.38C184.23 14.8733 184.697 14.4667 185.284 14.16C185.87 13.84 186.544 13.68 187.304 13.68ZM200.295 21.66V25H198.595C195.728 25 194.295 23.58 194.295 20.74V17.04H192.915V13.78H194.295V11.06H198.235V13.78H200.275V17.04H198.235V20.8C198.235 21.1067 198.301 21.3267 198.435 21.46C198.581 21.5933 198.821 21.66 199.155 21.66H200.295Z" fill="#0A090B"/>
<defs>
<clipPath id="clip0_39_1953">
<rect width="36" height="36" fill="white" transform="translate(9)"/>
</clipPath>
</defs>
</svg>
